<svg xmlns="http://www.w3.org/2000/svg" viewBox="0 0 920 460" font-family="ui-sans-serif, system-ui, sans-serif" role="img" aria-label="Dispatch fairness — offered share vs dispatch share">
<text x="460.0" y="26.0" font-size="16" text-anchor="middle" fill="#8b949e" font-weight="bold">Dispatch fairness — offered share vs dispatch share by class</text>
<text x="460.0" y="45.0" font-size="11" text-anchor="middle" fill="#8b949e" font-weight="normal">The boost redistributes dispatch from Batch/Default toward Interactive — more sharply under the exact-ordering locking binding</text>
<rect x="210" y="57" width="12" height="12" rx="2" fill="#8b949e"/>
<text x="228.0" y="67.0" font-size="12" text-anchor="start" fill="#8b949e" font-weight="normal">offered %</text>
<rect x="300.8" y="57" width="12" height="12" rx="2" fill="#58a6ff"/>
<text x="318.8" y="67.0" font-size="12" text-anchor="start" fill="#8b949e" font-weight="normal">LockingPriority dispatch %</text>
<rect x="514.0" y="57" width="12" height="12" rx="2" fill="#f0883e"/>
<text x="532.0" y="67.0" font-size="12" text-anchor="start" fill="#8b949e" font-weight="normal">MultiQueuePriority dispatch %</text>
<text x="261.0" y="98.0" font-size="13" text-anchor="middle" fill="#c9d1d9" font-weight="bold">2 workers</text>
<line x1="76" y1="392.0" x2="446" y2="392.0" stroke="#8b949e" stroke-opacity="0.2" stroke-width="1"/>
<text x="70.0" y="396.0" font-size="10" text-anchor="end" fill="#8b949e" font-weight="normal">0</text>
<line x1="76" y1="335.6" x2="446" y2="335.6" stroke="#8b949e" stroke-opacity="0.2" stroke-width="1"/>
<text x="70.0" y="339.6" font-size="10" text-anchor="end" fill="#8b949e" font-weight="normal">20</text>
<line x1="76" y1="279.2" x2="446" y2="279.2" stroke="#8b949e" stroke-opacity="0.2" stroke-width="1"/>
<text x="70.0" y="283.2" font-size="10" text-anchor="end" fill="#8b949e" font-weight="normal">40</text>
<line x1="76" y1="222.8" x2="446" y2="222.8" stroke="#8b949e" stroke-opacity="0.2" stroke-width="1"/>
<text x="70.0" y="226.8" font-size="10" text-anchor="end" fill="#8b949e" font-weight="normal">60</text>
<line x1="76" y1="166.4" x2="446" y2="166.4" stroke="#8b949e" stroke-opacity="0.2" stroke-width="1"/>
<text x="70.0" y="170.4" font-size="10" text-anchor="end" fill="#8b949e" font-weight="normal">80</text>
<line x1="76" y1="110.0" x2="446" y2="110.0" stroke="#8b949e" stroke-opacity="0.2" stroke-width="1"/>
<text x="70.0" y="114.0" font-size="10" text-anchor="end" fill="#8b949e" font-weight="normal">100</text>
<text x="32.0" y="251.0" font-size="10" text-anchor="middle" fill="#8b949e" font-weight="normal">share (%)</text>
<text x="137.7" y="408.0" font-size="11" text-anchor="middle" fill="#8b949e" font-weight="normal">Interactive</text>
<rect x="92.0" y="372.5" width="27.4" height="19.5" rx="2" fill="#8b949e"/>
<text x="105.7" y="367.5" font-size="9" text-anchor="middle" fill="#8b949e" font-weight="bold">7</text>
<rect x="122.5" y="364.7" width="27.4" height="27.3" rx="2" fill="#58a6ff"/>
<text x="136.1" y="359.7" font-size="9" text-anchor="middle" fill="#58a6ff" font-weight="bold">10</text>
<rect x="152.9" y="365.6" width="27.4" height="26.4" rx="2" fill="#f0883e"/>
<text x="166.6" y="360.6" font-size="9" text-anchor="middle" fill="#f0883e" font-weight="bold">9</text>
<text x="261.0" y="408.0" font-size="11" text-anchor="middle" fill="#8b949e" font-weight="normal">Default</text>
<rect x="215.4" y="372.5" width="27.4" height="19.5" rx="2" fill="#8b949e"/>
<text x="229.1" y="367.5" font-size="9" text-anchor="middle" fill="#8b949e" font-weight="bold">7</text>
<rect x="245.8" y="366.0" width="27.4" height="26.0" rx="2" fill="#58a6ff"/>
<text x="259.5" y="361.0" font-size="9" text-anchor="middle" fill="#58a6ff" font-weight="bold">9</text>
<rect x="276.2" y="366.3" width="27.4" height="25.7" rx="2" fill="#f0883e"/>
<text x="289.9" y="361.3" font-size="9" text-anchor="middle" fill="#f0883e" font-weight="bold">9</text>
<text x="384.3" y="408.0" font-size="11" text-anchor="middle" fill="#8b949e" font-weight="normal">Batch</text>
<rect x="338.7" y="149.1" width="27.4" height="242.9" rx="2" fill="#8b949e"/>
<text x="352.4" y="144.1" font-size="9" text-anchor="middle" fill="#8b949e" font-weight="bold">86</text>
<rect x="369.1" y="163.3" width="27.4" height="228.7" rx="2" fill="#58a6ff"/>
<text x="382.8" y="158.3" font-size="9" text-anchor="middle" fill="#58a6ff" font-weight="bold">81</text>
<rect x="399.5" y="162.1" width="27.4" height="229.9" rx="2" fill="#f0883e"/>
<text x="413.2" y="157.1" font-size="9" text-anchor="middle" fill="#f0883e" font-weight="bold">82</text>
<text x="705.0" y="98.0" font-size="13" text-anchor="middle" fill="#c9d1d9" font-weight="bold">8 workers</text>
<line x1="520" y1="392.0" x2="890" y2="392.0" stroke="#8b949e" stroke-opacity="0.2" stroke-width="1"/>
<text x="514.0" y="396.0" font-size="10" text-anchor="end" fill="#8b949e" font-weight="normal">0</text>
<line x1="520" y1="335.6" x2="890" y2="335.6" stroke="#8b949e" stroke-opacity="0.2" stroke-width="1"/>
<text x="514.0" y="339.6" font-size="10" text-anchor="end" fill="#8b949e" font-weight="normal">20</text>
<line x1="520" y1="279.2" x2="890" y2="279.2" stroke="#8b949e" stroke-opacity="0.2" stroke-width="1"/>
<text x="514.0" y="283.2" font-size="10" text-anchor="end" fill="#8b949e" font-weight="normal">40</text>
<line x1="520" y1="222.8" x2="890" y2="222.8" stroke="#8b949e" stroke-opacity="0.2" stroke-width="1"/>
<text x="514.0" y="226.8" font-size="10" text-anchor="end" fill="#8b949e" font-weight="normal">60</text>
<line x1="520" y1="166.4" x2="890" y2="166.4" stroke="#8b949e" stroke-opacity="0.2" stroke-width="1"/>
<text x="514.0" y="170.4" font-size="10" text-anchor="end" fill="#8b949e" font-weight="normal">80</text>
<line x1="520" y1="110.0" x2="890" y2="110.0" stroke="#8b949e" stroke-opacity="0.2" stroke-width="1"/>
<text x="514.0" y="114.0" font-size="10" text-anchor="end" fill="#8b949e" font-weight="normal">100</text>
<text x="476.0" y="251.0" font-size="10" text-anchor="middle" fill="#8b949e" font-weight="normal">share (%)</text>
<text x="581.7" y="408.0" font-size="11" text-anchor="middle" fill="#8b949e" font-weight="normal">Interactive</text>
<rect x="536.0" y="352.1" width="27.4" height="39.9" rx="2" fill="#8b949e"/>
<text x="549.7" y="347.1" font-size="9" text-anchor="middle" fill="#8b949e" font-weight="bold">14</text>
<rect x="566.5" y="349.3" width="27.4" height="42.7" rx="2" fill="#58a6ff"/>
<text x="580.1" y="344.3" font-size="9" text-anchor="middle" fill="#58a6ff" font-weight="bold">15</text>
<rect x="596.9" y="349.1" width="27.4" height="42.9" rx="2" fill="#f0883e"/>
<text x="610.6" y="344.1" font-size="9" text-anchor="middle" fill="#f0883e" font-weight="bold">15</text>
<text x="705.0" y="408.0" font-size="11" text-anchor="middle" fill="#8b949e" font-weight="normal">Default</text>
<rect x="659.4" y="328.8" width="27.4" height="63.2" rx="2" fill="#8b949e"/>
<text x="673.1" y="323.8" font-size="9" text-anchor="middle" fill="#8b949e" font-weight="bold">22</text>
<rect x="689.8" y="326.5" width="27.4" height="65.5" rx="2" fill="#58a6ff"/>
<text x="703.5" y="321.5" font-size="9" text-anchor="middle" fill="#58a6ff" font-weight="bold">23</text>
<rect x="720.2" y="327.4" width="27.4" height="64.6" rx="2" fill="#f0883e"/>
<text x="733.9" y="322.4" font-size="9" text-anchor="middle" fill="#f0883e" font-weight="bold">23</text>
<text x="828.3" y="408.0" font-size="11" text-anchor="middle" fill="#8b949e" font-weight="normal">Batch</text>
<rect x="782.7" y="213.1" width="27.4" height="178.9" rx="2" fill="#8b949e"/>
<text x="796.4" y="208.1" font-size="9" text-anchor="middle" fill="#8b949e" font-weight="bold">63</text>
<rect x="813.1" y="218.2" width="27.4" height="173.8" rx="2" fill="#58a6ff"/>
<text x="826.8" y="213.2" font-size="9" text-anchor="middle" fill="#58a6ff" font-weight="bold">62</text>
<rect x="843.5" y="217.6" width="27.4" height="174.4" rx="2" fill="#f0883e"/>
<text x="857.2" y="212.6" font-size="9" text-anchor="middle" fill="#f0883e" font-weight="bold">62</text>
</svg>
