<svg xmlns="http://www.w3.org/2000/svg" viewBox="0 0 720 420" font-family="ui-sans-serif, system-ui, sans-serif" role="img" aria-label="Contended throughput: MultiQueue vs locking baseline">
<text x="360.0" y="24.0" font-size="15" text-anchor="middle" fill="#8b949e" font-weight="bold">Contended throughput — UniformMixed5050 (i9-13900K, 0.5 s windows)</text>
<text x="360.0" y="42.0" font-size="11" text-anchor="middle" fill="#8b949e" font-weight="normal">Bifrost port numbers · docs/benchmarks/2026-06-cpq-port-parity.md §3</text>
<line x1="70" y1="356.0" x2="690" y2="356.0" stroke="#8b949e" stroke-opacity="0.25" stroke-width="1"/>
<text x="62.0" y="360.0" font-size="11" text-anchor="end" fill="#8b949e" font-weight="normal">0</text>
<line x1="70" y1="306.0" x2="690" y2="306.0" stroke="#8b949e" stroke-opacity="0.25" stroke-width="1"/>
<text x="62.0" y="310.0" font-size="11" text-anchor="end" fill="#8b949e" font-weight="normal">15</text>
<line x1="70" y1="256.0" x2="690" y2="256.0" stroke="#8b949e" stroke-opacity="0.25" stroke-width="1"/>
<text x="62.0" y="260.0" font-size="11" text-anchor="end" fill="#8b949e" font-weight="normal">30</text>
<line x1="70" y1="206.0" x2="690" y2="206.0" stroke="#8b949e" stroke-opacity="0.25" stroke-width="1"/>
<text x="62.0" y="210.0" font-size="11" text-anchor="end" fill="#8b949e" font-weight="normal">45</text>
<line x1="70" y1="156.0" x2="690" y2="156.0" stroke="#8b949e" stroke-opacity="0.25" stroke-width="1"/>
<text x="62.0" y="160.0" font-size="11" text-anchor="end" fill="#8b949e" font-weight="normal">60</text>
<line x1="70" y1="106.0" x2="690" y2="106.0" stroke="#8b949e" stroke-opacity="0.25" stroke-width="1"/>
<text x="62.0" y="110.0" font-size="11" text-anchor="end" fill="#8b949e" font-weight="normal">75</text>
<line x1="70" y1="56.0" x2="690" y2="56.0" stroke="#8b949e" stroke-opacity="0.25" stroke-width="1"/>
<text x="62.0" y="60.0" font-size="11" text-anchor="end" fill="#8b949e" font-weight="normal">90</text>
<text x="24.0" y="206.0" font-size="12" text-anchor="middle" fill="#8b949e" font-weight="normal">M ops/s</text>
<text x="70.0" y="374.0" font-size="11" text-anchor="middle" fill="#8b949e" font-weight="normal">1</text>
<text x="225.0" y="374.0" font-size="11" text-anchor="middle" fill="#8b949e" font-weight="normal">4</text>
<text x="380.0" y="374.0" font-size="11" text-anchor="middle" fill="#8b949e" font-weight="normal">16</text>
<text x="535.0" y="374.0" font-size="11" text-anchor="middle" fill="#8b949e" font-weight="normal">32</text>
<text x="690.0" y="374.0" font-size="11" text-anchor="middle" fill="#8b949e" font-weight="normal">64</text>
<text x="380.0" y="394.0" font-size="12" text-anchor="middle" fill="#8b949e" font-weight="normal">threads</text>
<polyline points="70.0,304.7 225.0,238.0 380.0,100.3 535.0,82.0 690.0,88.7" fill="none" stroke="#f0883e" stroke-width="2.5"/>
<circle cx="70.0" cy="304.7" r="4" fill="#f0883e"/>
<text x="70.0" y="294.7" font-size="10" text-anchor="middle" fill="#f0883e" font-weight="normal">15.4</text>
<circle cx="225.0" cy="238.0" r="4" fill="#f0883e"/>
<text x="225.0" y="228.0" font-size="10" text-anchor="middle" fill="#f0883e" font-weight="normal">35.4</text>
<circle cx="380.0" cy="100.3" r="4" fill="#f0883e"/>
<text x="380.0" y="90.3" font-size="10" text-anchor="middle" fill="#f0883e" font-weight="normal">76.7</text>
<circle cx="535.0" cy="82.0" r="4" fill="#f0883e"/>
<text x="535.0" y="72.0" font-size="10" text-anchor="middle" fill="#f0883e" font-weight="normal">82.2</text>
<circle cx="690.0" cy="88.7" r="4" fill="#f0883e"/>
<text x="690.0" y="78.7" font-size="10" text-anchor="middle" fill="#f0883e" font-weight="normal">80.2</text>
<polyline points="70.0,282.0 225.0,293.3 380.0,298.0 535.0,297.7 690.0,313.7" fill="none" stroke="#58a6ff" stroke-width="2.5"/>
<circle cx="70.0" cy="282.0" r="4" fill="#58a6ff"/>
<text x="70.0" y="300.0" font-size="10" text-anchor="middle" fill="#58a6ff" font-weight="normal">22.2</text>
<circle cx="225.0" cy="293.3" r="4" fill="#58a6ff"/>
<text x="225.0" y="311.3" font-size="10" text-anchor="middle" fill="#58a6ff" font-weight="normal">18.8</text>
<circle cx="380.0" cy="298.0" r="4" fill="#58a6ff"/>
<text x="380.0" y="316.0" font-size="10" text-anchor="middle" fill="#58a6ff" font-weight="normal">17.4</text>
<circle cx="535.0" cy="297.7" r="4" fill="#58a6ff"/>
<text x="535.0" y="315.7" font-size="10" text-anchor="middle" fill="#58a6ff" font-weight="normal">17.5</text>
<circle cx="690.0" cy="313.7" r="4" fill="#58a6ff"/>
<text x="690.0" y="331.7" font-size="10" text-anchor="middle" fill="#58a6ff" font-weight="normal">12.7</text>
<rect x="84" y="63" width="12" height="12" rx="2" fill="#f0883e"/>
<text x="102.0" y="73.0" font-size="12" text-anchor="start" fill="#8b949e" font-weight="normal">ConcurrentPriorityQueue (relaxed two-choice)</text>
<rect x="84" y="83" width="12" height="12" rx="2" fill="#58a6ff"/>
<text x="102.0" y="93.0" font-size="12" text-anchor="start" fill="#8b949e" font-weight="normal">LockingPriorityQueue (exact, global lock)</text>
</svg>
